<?xml version="1.0" encoding="utf-8"?>
<!-- Generator: Adobe Illustrator 19.0.0, SVG Export Plug-In . SVG Version: 6.00 Build 0)  -->
<svg version="1.1" id="layer" xmlns="http://www.w3.org/2000/svg" xmlns:xlink="http://www.w3.org/1999/xlink" x="0px"
	y="0px" viewBox="-153 -46 652 652" style="enable-background:new -153 -46 652 652;" xml:space="preserve">
	<style type="text/css">
		.st0 {
			fill: #004898;
		}
	</style>
	<g>
		<path class="st0" d="M162,212.4l-21.4-1.5c-13.7-1-20.6-1.5-20.6-15.7c0-9.4,1.4-15.2,29.6-15.2c20.6,0,28.3,0,28.3,18.4v0.5h50.5
		v-8.1c0-52.1-38.3-52.1-78.8-52.1c-51.1,0-82.1,3.8-82.1,56.7c0,51.3,26.6,53,70.7,55.9l18.2,1.2c22.5,1.4,24.9,1.5,24.9,16.6
		c0,15.1-7.7,16.4-31.6,16.4c-25.4,0-31.9-2-31.9-20.6v-0.5H67.2v0.5c0,61.9,34.5,61.9,82.4,61.9c38.3,0,61.7-5.9,73.6-18.5
		c10.6-11.2,10.6-26.4,10.6-41.1v-1.3C233.8,223.1,219.4,216.4,162,212.4" />
	</g>
	<polygon class="st0" points="-9.8,210.3 -78.8,210.3 -78.8,141.7 -131.7,141.7 -131.7,326.8 -78.8,326.8 -78.8,254.1 -9.8,254.1 
	-9.8,326.8 43.1,326.8 43.1,141.7 -9.8,141.7 " />
	<g>
		<path class="st0" d="M310.9,185.4h43.4c12.5,0,21.1,2.2,23.7,6.1c1.6,2.4,5.3,11.4,5.3,42.8c0,29.1-3.7,38.7-5.9,41.8
		c-3.1,4.4-12,6.8-25.2,6.8h-41.2V185.4z M418.7,159.5c-12-11.9-32.5-18-60.8-18h-100v185.3H359c32.7,0,53.6-7.1,63.8-21.8
		c9.4-13.5,14-41.5,14-85.6C436.8,191.2,430.9,171.6,418.7,159.5" />
		<path class="st0" d="M-73.2,367.1v45.5h-9.5v-24.8c0-2,0.1-4.2,0.2-6.7l0.2-3.4l0.2-3.4h-0.3l-1.1,3.2l-1.1,3.2
		c-1,2.9-1.8,4.9-2.4,6.3l-11,25.6h-8.7l-11.1-25.4c-0.6-1.4-1.4-3.5-2.4-6.3l-1.1-3.2l-1.1-3.1h-0.3l0.2,3.3l0.2,3.3
		c0.1,2.6,0.2,4.8,0.2,6.6v24.8h-9.5v-45.5h15.5l8.9,21.1c0.6,1.5,1.4,3.6,2.4,6.3l1.1,3.2l1.1,3.1h0.3l1.1-3.1l1.1-3.1
		c0.9-2.6,1.7-4.7,2.4-6.3l8.8-21.1H-73.2z" />
	</g>
	<polygon class="st0" points="-53.8,374.4 -53.8,386.1 -30.3,386.1 -30.3,392.4 -53.8,392.4 -53.8,405.3 -28.8,405.3 -28.8,412.6 
	-63.3,412.6 -63.3,367.1 -29,367.1 -29,374.4 " />
	<g>
		<path class="st0" d="M11.3,396.4h9.5v1.6c0,6.3-1.3,10.4-3.8,12.3c-2.5,1.9-8.2,2.8-16.9,2.8c-9.9,0-15.9-1.4-18.2-4.4
		c-2.3-2.9-3.4-10.8-3.4-23.5c0-7.5,1.5-12.4,4.6-14.8c3.1-2.4,9.5-3.6,19.3-3.6c7.1,0,11.9,1,14.3,2.9c2.4,1.9,3.6,5.8,3.6,11.6
		l0,1h-9.5v-1.2c0-3-0.6-4.9-1.8-5.7c-1.2-0.8-4.1-1.3-8.5-1.3c-5.9,0-9.4,0.7-10.6,2c-1.2,1.3-1.8,5.2-1.8,11.7
		c0,8.7,0.5,13.9,1.6,15.5c1.1,1.6,4.5,2.4,10.3,2.4c4.7,0,7.8-0.4,9.2-1.3c1.4-0.9,2.1-2.8,2.1-5.9L11.3,396.4z" />
	</g>
	<polygon class="st0" points="71.4,367.1 71.4,412.6 61.9,412.6 61.9,392.9 38.4,392.9 38.4,412.6 28.9,412.6 28.9,367.1 38.4,367.1 
	38.4,385.7 61.9,385.7 61.9,367.1 " />
	<path class="st0" d="M110.4,397.5l-8.7-23.7l-8.5,23.7H110.4z M112.6,403.8H91l-3.1,8.7h-10l16.6-45.5h14.3l16.9,45.5h-9.9
	L112.6,403.8z" />
	<polygon class="st0"
		points="149.9,374.8 149.9,412.6 140.4,412.6 140.4,374.8 126,374.8 126,367.1 164.9,367.1 164.9,374.8 " />
	<g>
		<path class="st0" d="M179.2,390h13.6c3.2,0,5.4-0.5,6.5-1.6c1.1-1.1,1.6-3.2,1.6-6.3c0-3.3-0.5-5.3-1.4-6.3c-0.9-0.9-2.9-1.4-6-1.4
		h-14.3V390z M169.7,412.6v-45.5h24.7c6.1,0,10.4,1,12.7,2.9c2.3,1.9,3.5,5.4,3.5,10.5c0,4.6-0.6,7.7-1.7,9.4
		c-1.1,1.7-3.5,2.9-7.1,3.5v0.3c5.5,0.3,8.3,3.3,8.3,8.8v10h-9.5v-8.3c0-4.7-2.5-7-7.6-7h-13.7v15.3H169.7z" />
		<path class="st0" d="M240.3,374.1c-6.4,0-10.1,0.8-11.2,2.2c-1.1,1.5-1.6,6.6-1.6,15.5c0,6.5,0.6,10.5,1.9,11.8c1.2,1.3,5,2,11.1,2
		c5.9,0,9.4-0.8,10.6-2.3c1.2-1.5,1.8-6,1.8-13.6c0-7.6-0.6-12.1-1.7-13.5C250.1,374.8,246.5,374.1,240.3,374.1 M241,366.7
		c9.1,0,14.9,1.4,17.6,4.1c2.6,2.7,3.9,8.9,3.9,18.4c0,10.4-1.3,17-4,19.7c-2.6,2.7-9,4-19.1,4c-9.1,0-15-1.3-17.6-4
		c-2.7-2.7-4-8.6-4-17.7c0-10.8,1.3-17.7,3.9-20.4C224.4,368.1,230.8,366.7,241,366.7" />
		<path class="st0" d="M317.5,367.1v45.5h-16.1l-14.3-24.9c-0.7-1.3-1.8-3.4-3.3-6.5l-1.6-3.3l-1.6-3.3h-0.4l0.2,3l0.1,3l0.1,6v26.1
		H271v-45.5h16.1l13,23.1c1.1,2,2.5,4.5,4,7.4l1.9,3.7l1.9,3.7h0.3l-0.1-2.9l-0.1-2.9l-0.1-5.9v-26.2H317.5z" />
	</g>
	<rect x="328.4" y="367.1" class="st0" width="9.5" height="45.5" />
	<g>
		<path class="st0" d="M379.8,396.4h9.5v1.6c0,6.3-1.3,10.4-3.8,12.3c-2.5,1.9-8.2,2.8-16.9,2.8c-9.9,0-16-1.4-18.2-4.4
		c-2.3-2.9-3.4-10.8-3.4-23.5c0-7.5,1.5-12.4,4.6-14.8c3.1-2.4,9.5-3.6,19.3-3.6c7.2,0,11.9,1,14.3,2.9c2.4,1.9,3.6,5.8,3.6,11.6
		l0,1h-9.5v-1.2c0-3-0.6-4.9-1.8-5.7c-1.2-0.8-4-1.3-8.4-1.3c-5.9,0-9.4,0.7-10.6,2c-1.2,1.3-1.8,5.2-1.8,11.7
		c0,8.7,0.5,13.9,1.6,15.5c1.1,1.6,4.5,2.4,10.3,2.4c4.7,0,7.8-0.4,9.2-1.3c1.4-0.9,2.1-2.8,2.1-5.9L379.8,396.4z" />
		<path class="st0" d="M434.6,380.4h-9.3c-0.1-0.4-0.1-0.7-0.1-0.9c-0.2-2.6-0.9-4.1-1.9-4.8c-1-0.7-3.5-1-7.3-1
		c-4.5,0-7.4,0.4-8.8,1.1c-1.4,0.8-2.1,2.3-2.1,4.8c0,2.9,0.5,4.6,1.7,5.2c1.1,0.6,4.8,1,11.2,1.3c7.4,0.4,12.3,1.3,14.5,2.9
		c2.2,1.6,3.3,4.8,3.3,9.7c0,6-1.3,9.9-3.8,11.7c-2.6,1.8-8.2,2.6-17,2.6c-7.9,0-13.1-0.9-15.7-2.6c-2.6-1.7-3.9-5.2-3.9-10.5l0-1.7
		h9.2l0,1c0,3.2,0.6,5.1,1.8,5.8c1.2,0.7,4.6,1.1,10,1.1c4.2,0,7-0.4,8.1-1.2c1.2-0.8,1.8-2.7,1.8-5.7c0-2.2-0.5-3.6-1.3-4.4
		c-0.9-0.7-2.8-1.2-5.8-1.3l-5.2-0.3c-7.9-0.4-13-1.4-15.2-3c-2.2-1.6-3.3-5-3.3-10.2c0-5.3,1.3-8.9,4-10.6
		c2.6-1.8,7.9-2.6,15.9-2.6c7.5,0,12.6,0.8,15.2,2.4c2.6,1.6,3.9,4.8,3.9,9.5V380.4z" />
		<path class="st0" d="M450.4,150.5h2.7c1.4,0,2.3,0.2,2.9,0.6c0.5,0.4,0.8,1.1,0.8,2c0,0.7-0.3,1.3-1,1.7c-0.6,0.4-1.4,0.6-2.3,0.6
		h-3.2V150.5z M453.7,158.1c1.1,0,1.8,0.2,2.3,0.7c0.5,0.5,0.7,1.2,0.7,2.1v1.1c0,0.6,0,1.1,0,1.6c0,0.5,0.1,0.9,0.2,1.2h3.2v-0.3
		c-0.1-0.3-0.2-0.6-0.3-1.1c-0.1-0.4-0.1-0.9-0.1-1.5v-1.1c0-1-0.2-1.8-0.6-2.6c-0.4-0.7-1.1-1.2-2-1.6c0.9-0.4,1.5-0.9,2-1.6
		c0.5-0.6,0.7-1.3,0.7-2.2c0-1.7-0.6-3-1.8-3.8c-1.2-0.9-2.9-1.3-5-1.3h-5.9v17h3.1v-6.7H453.7z M444.7,147.7
		c2.4-2.4,5.3-3.6,8.7-3.6c3.4,0,6.3,1.2,8.7,3.6c2.4,2.4,3.6,5.3,3.6,8.9c0,3.5-1.2,6.5-3.6,8.9c-2.4,2.4-5.3,3.6-8.7,3.6
		c-3.4,0-6.3-1.2-8.7-3.6c-2.4-2.4-3.6-5.4-3.6-8.9C441.1,153.1,442.3,150.1,444.7,147.7 M442.9,167.3c2.9,2.9,6.4,4.3,10.5,4.3
		c4.1,0,7.6-1.4,10.5-4.3c2.9-2.9,4.3-6.4,4.3-10.6c0-4.2-1.4-7.7-4.3-10.6c-2.9-2.9-6.4-4.3-10.5-4.3c-4.1,0-7.6,1.4-10.5,4.3
		c-2.9,2.9-4.3,6.4-4.3,10.6C438.6,160.8,440,164.4,442.9,167.3" />
	</g>
</svg>